<?xml version="1.0" standalone="no"?>
<!DOCTYPE svg PUBLIC "-//W3C//DTD SVG 20010904//EN"
 "http://www.w3.org/TR/2001/REC-SVG-20010904/DTD/svg10.dtd">
<svg version="1.0" xmlns="http://www.w3.org/2000/svg"
 width="662.000000pt" height="893.000000pt" viewBox="0 0 662.000000 893.000000"
 preserveAspectRatio="xMidYMid meet">

<g transform="translate(0.000000,893.000000) scale(0.100000,-0.100000)"
fill="#000000" stroke="none">
<path d="M2635 8916 c-68 -29 -110 -116 -86 -175 7 -15 32 -48 57 -72 l45 -44
-6 -65 c-14 -145 -56 -230 -113 -230 -61 0 -323 172 -480 314 -9 9 -8 20 8 51
36 72 18 145 -46 189 -50 34 -142 37 -192 6 -95 -58 -95 -192 0 -250 18 -11
47 -20 65 -20 30 0 49 -21 281 -302 l249 -303 -638 -3 c-596 -2 -638 -3 -643
-20 -3 -9 -120 -548 -260 -1197 -171 -793 -261 -1228 -273 -1325 -21 -178 -24
-596 -5 -740 48 -359 151 -651 319 -909 155 -238 387 -455 613 -575 155 -81
1719 -806 1740 -806 72 0 1557 683 1760 809 415 258 697 658 821 1166 58 239
73 372 73 675 0 206 -4 305 -17 395 -13 92 -391 1866 -518 2432 l-21 93 -682
2 -683 3 249 303 c232 281 251 302 281 302 42 0 92 31 117 72 40 66 16 156
-52 198 -50 30 -142 28 -191 -5 -67 -46 -87 -127 -46 -194 24 -39 31 -28 -86
-123 -165 -133 -335 -238 -388 -238 -55 0 -97 84 -112 228 l-7 63 50 52 c27
29 53 63 57 76 11 35 -3 87 -32 122 -93 110 -293 53 -293 -84 0 -43 10 -65 53
-120 l29 -38 -26 -72 c-54 -145 -122 -202 -283 -233 -93 -18 -150 -18 -235 0
-154 33 -221 91 -274 233 l-26 72 29 38 c43 55 53 77 53 119 0 104 -130 176
-235 130z m2560 -1126 c12 -20 484 -2220 500 -2330 34 -246 30 -563 -11 -805
-94 -558 -364 -980 -792 -1238 -128 -78 -1222 -590 -1552 -727 l-66 -27 -634
296 c-349 163 -727 339 -840 391 -261 121 -352 181 -506 334 -262 263 -413
578 -480 1006 -26 163 -26 570 -1 760 14 97 442 2119 494 2328 l5 22 1938 0
c1256 0 1941 -3 1945 -10z"/>
<path d="M3545 7632 c17 -10 228 -131 470 -269 l440 -251 375 -10 c206 -5 376
-9 378 -8 1 2 -22 113 -52 247 -30 134 -57 259 -61 277 l-7 32 -786 0 c-762 0
-786 -1 -757 -18z"/>
<path d="M3380 7313 l1 -268 377 -216 c207 -118 376 -220 375 -225 -2 -5 -174
-107 -383 -227 l-380 -219 0 -270 0 -270 33 20 c17 11 252 147 522 301 l489
281 493 0 c271 0 493 2 493 4 0 2 -18 77 -39 167 -36 150 -131 580 -131 593 0
3 -181 6 -403 6 l-403 0 -514 295 c-283 162 -518 295 -522 295 -5 0 -8 -120
-8 -267z"/>
<path d="M2237 7549 c-8 -13 -63 -107 -121 -209 l-106 -185 116 -3 c100 -2
118 0 129 14 15 21 -1 44 166 -241 67 -115 128 -218 135 -228 11 -17 17 -10
64 69 45 75 50 91 41 111 -14 30 -391 675 -401 687 -5 4 -15 -2 -23 -15z"/>
<path d="M2630 7079 c0 -17 109 -197 122 -201 7 -3 -45 -104 -134 -259 l-147
-254 106 -3 c59 -1 110 1 114 5 4 4 98 166 209 358 111 193 204 353 207 358 2
4 -104 7 -236 7 -163 0 -241 -3 -241 -11z"/>
<path d="M1402 7071 c8 -21 244 -420 248 -420 3 0 31 45 63 101 40 70 55 104
47 112 -5 5 -10 14 -10 18 0 4 137 9 305 10 l304 3 -52 92 -52 93 -428 0
c-242 0 -427 -4 -425 -9z"/>
<path d="M3380 6615 c0 -174 3 -314 8 -312 4 2 128 73 275 157 213 122 265
156 255 165 -14 13 -498 292 -523 301 -13 5 -15 -32 -15 -311z"/>
<path d="M1622 6460 l-210 -360 244 0 c134 0 244 3 244 8 0 4 -24 47 -53 97
-36 61 -59 91 -75 95 -21 5 -14 19 119 245 77 132 145 248 150 258 9 16 1 17
-99 17 l-109 0 -211 -360z"/>
<path d="M2817 6442 c-39 -68 -54 -105 -50 -120 l5 -22 -306 -2 -306 -3 53
-93 53 -93 424 1 c233 0 425 2 427 3 3 4 -222 406 -235 419 -6 6 -30 -28 -65
-90z"/>
<path d="M1927 6473 c-13 -21 -36 -61 -52 -88 l-28 -51 211 -362 210 -363 43
73 c130 222 199 343 199 350 0 5 -51 8 -114 8 -103 0 -115 -2 -127 -20 -13
-20 -25 -3 -163 235 -81 140 -150 255 -152 255 -2 0 -14 -17 -27 -37z"/>
<path d="M3927 5803 l-518 -298 1052 -3 c579 -1 1053 -1 1055 0 6 7 -21 204
-54 388 l-37 205 -490 3 -490 2 -518 -297z"/>
<path d="M956 5193 c-11 -203 14 -463 65 -673 44 -177 147 -399 256 -552 113
-158 299 -324 458 -407 33 -17 395 -187 804 -377 580 -269 750 -344 770 -339
49 12 680 299 1227 558 314 148 444 235 606 405 299 315 448 753 448 1319 l0
183 -2314 0 -2313 0 -7 -117z m2227 -112 l67 -22 0 -675 c0 -640 -1 -676 -17
-669 -96 41 -132 48 -253 49 -147 1 -165 -4 -380 -105 -158 -75 -190 -82 -402
-95 l-118 -7 -2 472 c-2 259 -3 558 -3 664 l0 192 80 6 c134 10 362 72 655
178 111 41 118 42 210 38 58 -3 121 -13 163 -26z m642 -7 c314 -113 529 -172
665 -182 l85 -7 -4 -660 c-2 -363 -5 -662 -7 -664 -8 -8 -332 19 -366 31 -18
6 -98 41 -178 78 -167 79 -239 100 -339 100 -76 0 -198 -23 -243 -46 -15 -8
-29 -14 -33 -14 -3 0 -5 304 -5 675 l0 674 68 20 c94 28 98 29 182 30 62 0 92
-5 175 -35z"/>
<path d="M7 3623 c-4 -3 -7 -13 -7 -22 0 -9 60 -171 134 -360 l135 -344 -113
-146 c-138 -178 -148 -194 -140 -214 10 -27 346 -206 572 -304 l72 -32 0 -236
0 -236 53 -23 c174 -78 556 -201 832 -270 581 -144 1129 -209 1775 -208 760 1
1433 99 2109 308 150 47 438 152 491 179 l30 16 0 235 0 235 63 26 c90 39 484
237 540 273 27 17 47 37 47 48 0 9 -56 93 -125 185 -69 92 -125 172 -125 178
0 5 59 158 131 339 72 182 129 340 127 353 -6 41 -45 32 -167 -38 -264 -150
-574 -287 -907 -401 -109 -37 -202 -73 -206 -78 -4 -6 -8 -113 -8 -238 l0
-227 -82 -25 c-400 -121 -849 -224 -1218 -280 -351 -54 -444 -61 -810 -60
-302 0 -366 3 -515 22 -379 51 -744 139 -1307 313 l-98 30 -2 237 -3 236 -180
61 c-340 116 -663 258 -927 408 -108 62 -154 78 -171 60z m1214 -1265 c32 -9
38 -15 33 -31 -8 -26 -64 -221 -64 -224 0 -2 60 40 132 92 73 52 137 95 143
95 5 -1 23 -7 40 -14 l30 -12 -118 -87 c-106 -79 -116 -89 -108 -109 5 -13 37
-90 70 -171 43 -105 56 -147 44 -143 -8 4 -35 11 -59 17 -24 6 -48 16 -53 23
-5 6 -35 76 -67 155 l-57 144 -35 -119 c-18 -65 -35 -121 -37 -123 -6 -5 -68
8 -84 18 -11 7 0 53 53 242 37 129 69 240 71 247 5 15 17 15 66 0z m4242 -59
c80 -41 132 -157 125 -279 -4 -81 -36 -137 -103 -179 -48 -30 -283 -97 -295
-84 -7 6 -129 455 -134 488 0 5 37 20 84 32 205 57 247 60 323 22z m-3699 -90
c14 -12 -114 -511 -130 -505 -7 3 -29 8 -48 12 -21 3 -36 12 -36 20 0 8 27
124 61 258 l61 243 41 -10 c23 -5 46 -13 51 -18z m3201 -249 c43 -171 59 -253
52 -255 -30 -10 -91 -24 -93 -22 -7 7 -124 491 -121 500 3 10 87 37 96 31 1
-1 31 -116 66 -254z m-2975 199 c9 -4 51 -91 94 -194 44 -102 82 -187 85 -190
4 -2 22 73 40 166 36 183 34 180 97 161 21 -7 21 -9 -29 -262 -27 -140 -50
-256 -51 -257 -1 -1 -22 3 -48 8 l-47 10 -82 195 c-45 107 -84 192 -87 189 -3
-3 -20 -78 -37 -168 l-31 -162 -39 2 c-21 2 -40 5 -42 7 -4 4 82 468 92 503 4
13 54 8 85 -8z m2720 -6 c0 -43 -71 -528 -77 -534 -5 -4 -29 -11 -55 -17 l-46
-9 -142 224 c-77 123 -143 230 -146 238 -4 9 10 16 47 24 29 6 55 8 58 3 3 -4
55 -86 116 -181 127 -201 112 -207 145 49 24 187 30 207 62 213 13 2 26 5 31
6 4 0 7 -7 7 -16z m-1897 -128 c54 -18 57 -20 57 -51 0 -18 -4 -35 -8 -38 -5
-3 -40 6 -78 19 -127 45 -206 23 -253 -69 -35 -69 -37 -184 -3 -238 27 -44 97
-81 144 -76 l33 3 11 77 c5 43 13 80 15 83 3 3 27 2 52 -1 45 -6 47 -8 46 -38
0 -17 -6 -67 -12 -111 l-12 -80 -110 0 c-93 1 -118 4 -163 24 -56 25 -106 75
-128 127 -18 44 -18 158 1 221 19 65 82 137 138 157 55 20 192 16 270 -9z
m1338 -227 c75 -134 135 -244 134 -246 -1 -1 -25 -6 -53 -11 l-50 -8 -36 64
c-41 71 -34 69 -167 51 -65 -8 -90 -16 -93 -27 -2 -9 -10 -41 -17 -71 -6 -30
-17 -58 -23 -62 -14 -10 -66 -10 -66 0 1 4 29 126 64 272 l63 265 34 6 c75 14
64 26 210 -233z m-586 178 c92 -39 140 -130 133 -256 -5 -89 -28 -140 -86
-192 -49 -45 -103 -57 -264 -60 l-116 -3 -6 35 c-3 19 -6 137 -6 262 l0 227
88 4 c116 5 220 -2 257 -17z"/>
<path d="M5218 2228 c-23 -6 -38 -16 -38 -25 0 -12 62 -254 87 -336 4 -16 11
-18 41 -12 55 10 114 39 142 69 22 25 25 36 25 104 -1 88 -22 141 -75 186 -26
22 -41 26 -88 25 -31 -1 -74 -6 -94 -11z"/>
<path d="M3956 1909 c-10 -27 -46 -177 -46 -189 0 -12 29 -10 128 7 l32 5 -42
77 c-58 106 -66 118 -72 100z"/>
<path d="M3330 1729 l0 -192 74 5 c132 9 180 60 179 193 -1 81 -16 119 -63
159 -28 23 -40 26 -111 26 l-79 0 0 -191z"/>
<path d="M1579 561 c-44 -14 -77 -41 -93 -76 -42 -88 -3 -161 124 -235 30 -18
65 -41 78 -53 30 -28 30 -80 0 -101 -28 -20 -109 -20 -163 -1 -55 20 -55 20
-55 -29 0 -52 2 -53 108 -62 104 -9 177 12 221 61 27 31 31 43 31 95 0 52 -4
64 -31 95 -17 19 -69 58 -115 86 -106 64 -123 90 -84 129 24 24 85 27 153 6
l47 -14 0 43 c0 30 -5 45 -16 49 -28 11 -178 16 -205 7z"/>
<path d="M2107 560 c-58 -15 -92 -36 -130 -80 -43 -50 -61 -114 -60 -206 1
-122 63 -221 159 -255 48 -17 203 -17 262 0 41 11 42 13 42 55 l0 43 -52 -18
c-186 -64 -323 50 -288 240 11 63 32 96 80 129 40 27 116 29 200 7 30 -8 56
-15 58 -15 1 0 2 20 2 44 0 37 -4 45 -22 50 -42 12 -212 16 -251 6z"/>
<path d="M3248 557 c-61 -18 -111 -57 -145 -115 -26 -44 -28 -55 -28 -158 0
-106 1 -113 30 -159 60 -98 164 -139 292 -118 82 14 136 50 177 117 26 41 30
60 34 134 2 48 -1 106 -7 129 -16 59 -68 123 -122 150 -57 30 -164 39 -231 20z
m180 -102 c45 -40 62 -88 62 -170 0 -82 -17 -130 -62 -170 -33 -30 -45 -35
-87 -35 -93 0 -151 79 -151 205 0 126 58 205 151 205 42 0 54 -5 87 -35z"/>
<path d="M3895 561 c-71 -18 -131 -66 -168 -136 -31 -58 -31 -222 0 -280 45
-86 116 -132 216 -142 125 -11 229 43 278 145 18 38 23 64 23 137 0 106 -22
163 -84 219 -61 55 -173 79 -265 57z m153 -91 c103 -63 103 -306 0 -370 -48
-31 -128 -24 -168 15 -94 90 -72 321 35 365 37 16 99 11 133 -10z"/>
<path d="M4887 556 c-67 -25 -97 -66 -97 -136 0 -73 31 -110 145 -174 70 -40
95 -65 95 -96 0 -64 -79 -87 -186 -55 -27 8 -50 15 -51 15 -2 0 -3 -20 -3 -45
0 -40 3 -45 28 -52 15 -4 68 -7 117 -8 78 0 96 3 135 25 52 29 80 76 80 135 0
57 -31 100 -101 143 -147 90 -171 120 -130 161 25 25 89 28 150 6 l41 -14 0
43 c0 52 -5 55 -110 62 -51 3 -87 0 -113 -10z"/>
<path d="M2500 285 l0 -265 55 0 55 0 0 120 0 120 110 0 110 0 0 -120 0 -120
60 0 60 0 0 265 0 265 -60 0 -60 0 0 -105 0 -105 -110 0 -110 0 0 105 0 105
-55 0 -55 0 0 -265z"/>
<path d="M4370 285 l0 -265 175 0 175 0 0 35 0 35 -120 0 -120 0 0 230 0 230
-55 0 -55 0 0 -265z"/>
</g>
</svg>
