<svg version="1.1" id="Layer_1" xmlns="http://www.w3.org/2000/svg" xmlns:xlink="http://www.w3.org/1999/xlink" x="0px" y="0px"
	 width="100%" viewBox="0 0 848 1024" enable-background="new 0 0 848 1024" xml:space="preserve">
<path fill="#000000" opacity="1.000000" stroke="none" 
	d="
M563.001709,395.690735 
	C580.996643,395.690308 598.492981,395.790588 615.986694,395.616486 
	C620.116455,395.575378 621.631104,396.977844 622.492065,401.093109 
	C628.602356,430.297211 632.080200,459.765533 633.520386,489.578766 
	C634.850586,517.114441 633.413940,544.443054 630.397339,571.773010 
	C623.259949,636.435852 604.496460,697.404968 572.690308,754.254883 
	C555.434265,785.098083 534.680725,813.381775 509.818176,838.506409 
	C486.361115,862.210754 460.061768,882.240723 430.500763,897.870239 
	C427.455139,899.480530 425.059326,899.044006 422.136719,897.490356 
	C375.005981,872.434326 337.017029,837.078796 305.950470,794.059692 
	C270.770508,745.344604 247.339325,691.284363 233.494003,632.921936 
	C224.978394,597.025818 220.351135,560.699097 219.478531,523.789307 
	C218.502457,482.503235 222.235519,441.744995 230.589157,401.336975 
	C231.536301,396.755585 233.523773,395.549744 237.948593,395.590942 
	C259.441101,395.791046 280.936890,395.609436 302.430359,395.749237 
	C306.189789,395.773712 308.475922,395.071411 309.816803,391.031006 
	C311.631683,385.562286 316.437836,383.967163 321.834137,383.964447 
	C337.163391,383.956726 352.496735,383.756195 367.819580,384.067932 
	C372.784912,384.168976 374.952332,382.427216 376.094940,377.731018 
	C380.112793,361.217255 382.344482,344.414581 384.713318,327.628479 
	C385.728180,320.437042 386.677216,313.236298 387.656158,306.039795 
	C388.150208,305.956573 388.644257,305.873383 389.138275,305.790161 
	C394.098236,318.631134 399.058167,331.472076 404.018097,344.313049 
	C404.177765,344.261047 404.337402,344.209015 404.497070,344.157013 
	C403.316498,338.665405 402.140411,333.172852 400.951691,327.683014 
	C400.705170,326.544403 400.452576,325.404205 400.132141,324.284973 
	C399.368225,321.616486 399.897430,319.133606 402.003662,317.460327 
	C407.195770,313.335358 406.163391,301.844788 417.372345,304.752197 
	C423.724213,306.399780 430.213898,305.729919 436.715698,304.899536 
	C444.253265,303.936890 446.005798,305.373688 448.205719,312.511017 
	C448.445068,313.287476 448.622070,314.346069 449.191132,314.717590 
	C455.252655,318.674683 454.278748,323.973907 452.576508,329.764252 
	C451.222504,334.370087 450.583130,339.186035 450.019806,344.088470 
	C454.942413,331.323578 459.865021,318.558716 464.829559,305.685120 
	C467.388824,306.920837 466.978516,308.790283 467.153809,310.307465 
	C469.653931,331.949890 472.452209,353.542419 477.216949,374.832703 
	C479.261108,383.966675 479.213715,383.971954 488.668518,383.969910 
	C502.498199,383.966888 516.328247,384.031525 530.157410,383.949341 
	C536.988525,383.908752 542.334290,385.918091 544.238037,393.198273 
	C544.858643,395.571594 546.605286,395.679932 548.507202,395.681091 
	C553.172180,395.683899 557.837219,395.687744 563.001709,395.690735 
M623.177612,480.098633 
	C621.921326,457.307678 618.805176,434.757996 614.698975,412.316223 
	C613.841858,407.631714 611.926758,406.176971 607.125244,406.182587 
	C486.822998,406.322784 366.520508,406.336029 246.218353,406.174988 
	C240.988297,406.167999 239.265747,408.143188 238.424530,412.771362 
	C233.717972,438.665527 230.277115,464.721954 229.418594,491.025940 
	C228.057327,532.733826 230.808304,574.166443 239.403412,615.091492 
	C253.641159,682.883545 280.124573,745.160583 322.902466,800.079041 
	C350.150848,835.060608 382.638611,864.005188 421.314697,885.904602 
	C425.109802,888.053528 427.954224,887.998474 431.820007,885.841125 
	C465.689148,866.939636 494.751434,842.242920 519.842102,812.857178 
	C563.495300,761.731018 591.820435,702.722168 608.541992,637.930115 
	C616.330566,607.751099 621.070679,577.073425 622.967468,545.915527 
	C624.285400,524.265686 624.116028,502.653442 623.177612,480.098633 
M348.033203,399.721649 
	C349.295593,394.517517 346.593262,390.346771 341.765289,390.282104 
	C335.470490,390.197815 329.173523,390.269562 322.877502,390.280884 
	C319.485718,390.286987 316.651855,391.657135 316.636688,395.222626 
	C316.621033,398.917725 319.638580,399.991669 322.952881,399.981995 
	C331.070496,399.958313 339.188049,399.916656 348.033203,399.721649 
M419.847046,399.973267 
	C421.159973,399.715729 423.595612,400.310944 422.889587,398.014771 
	C422.012482,395.162109 421.606720,390.838226 418.018005,390.598999 
	C409.696533,390.044281 401.312866,390.422455 392.853088,390.422455 
	C394.260406,398.950500 395.355927,399.973358 402.579773,399.997864 
	C408.050537,400.016388 413.521484,399.990692 419.847046,399.973267 
M491.685059,390.341522 
	C483.442108,390.341522 475.199158,390.341522 466.440338,390.341522 
	C467.594177,394.499939 467.857300,399.185364 471.616730,399.535858 
	C479.928619,400.310699 488.362549,399.776886 497.262878,399.776886 
	C495.918884,395.898376 495.635406,392.487183 491.685059,390.341522 
M416.000458,367.950562 
	C413.895447,371.100586 416.961304,372.124573 418.567352,372.916901 
	C424.030243,375.611877 429.763336,375.597015 435.330566,373.068268 
	C437.253693,372.194763 439.019623,370.861359 439.127563,367.975739 
	C431.533936,369.677551 424.046631,370.687805 416.000458,367.950562 
M440.668671,363.304443 
	C441.069366,360.185303 446.693665,357.781464 442.151184,353.073822 
	C439.281525,357.179657 436.106476,359.702271 432.104218,361.072937 
	C430.616699,361.582336 429.967438,362.607574 430.350220,364.118134 
	C430.786011,365.837616 432.257141,365.724243 433.558685,365.626465 
	C435.859467,365.453674 438.132568,365.091034 440.668671,363.304443 
M417.514465,365.025787 
	C418.162506,365.145142 418.806030,365.308167 419.459442,365.375153 
	C421.028442,365.536011 422.949829,366.366882 423.650360,364.131714 
	C424.318695,361.999268 422.647827,361.143402 421.020996,360.681732 
	C417.035339,359.550537 414.630737,356.312164 411.820984,353.662842 
	C408.631348,357.119049 411.446503,363.177185 417.514465,365.025787 
M425.855927,383.830139 
	C427.602478,383.768646 429.720856,384.515564 430.494690,382.098083 
	C430.883118,380.884521 430.489380,379.641571 429.050354,379.400116 
	C427.275238,379.102264 425.178619,378.567749 423.889893,380.160400 
	C422.812042,381.492432 423.242096,383.013733 425.855927,383.830139 
z"/>
<path fill="#000000" opacity="1.000000" stroke="none" 
	d="
M393.000000,207.000000 
	C385.178406,200.377792 375.461639,198.517029 365.912140,196.284180 
	C355.861389,193.934113 345.789093,191.675339 335.715637,189.423920 
	C325.364990,187.110550 319.705566,180.815170 318.394562,170.187668 
	C317.798126,165.352524 317.774261,160.561691 317.738159,155.739822 
	C317.709442,151.908249 317.643280,148.072113 317.784027,144.244995 
	C318.259064,131.328644 313.117340,121.798759 301.453522,115.737564 
	C296.897247,113.369835 292.432312,110.571129 288.518433,107.266762 
	C271.991577,93.313599 268.972504,75.204834 273.446930,55.148388 
	C275.239166,47.114716 278.894226,39.778931 283.534424,32.982853 
	C284.502930,31.564390 285.127869,29.587450 287.873962,29.366013 
	C286.863068,35.837303 285.917023,42.145008 284.884521,48.438526 
	C283.641541,56.015064 283.393158,63.638824 283.175476,71.303932 
	C282.982483,78.100128 285.708527,83.196846 290.407288,87.578362 
	C299.247253,95.821487 309.783539,101.665367 319.798676,108.246124 
	C326.077728,112.371956 332.369507,116.507591 336.236511,123.264008 
	C338.007660,126.358559 339.569763,129.542404 338.904388,133.569901 
	C332.571259,122.045479 321.226074,117.345428 310.335175,112.100266 
	C314.126556,114.540024 317.930450,116.960571 321.707031,119.423042 
	C334.861298,128.000076 339.968231,140.703262 339.458557,155.775116 
	C338.835663,174.193985 344.430298,181.503693 362.758209,184.775726 
	C378.266754,187.544418 392.617096,192.891724 404.622711,203.501877 
	C412.914062,210.829498 419.307190,219.434006 422.079803,230.292603 
	C422.774261,233.012482 424.089569,233.849350 426.595490,233.693970 
	C428.703796,233.563248 430.838593,234.047577 431.728394,231.047882 
	C438.789459,207.243668 456.463074,194.817520 478.864838,187.743195 
	C484.715912,185.895447 490.888733,185.092453 496.818787,183.463776 
	C509.942322,179.859436 514.832703,173.186493 514.691040,159.545059 
	C514.642761,154.892166 514.642944,150.289734 515.299805,145.619446 
	C516.986328,133.629318 523.651733,125.215927 533.343811,118.722275 
	C536.091858,116.881104 538.859253,115.068703 541.439819,113.002075 
	C530.908936,117.479874 521.193604,123.033051 515.060608,133.485489 
	C515.374329,125.769142 518.956665,119.907585 524.566528,115.240883 
	C530.986206,109.900528 538.205750,105.689964 545.217773,101.198036 
	C551.258545,97.328316 557.125305,93.226395 562.576721,88.554543 
	C568.034180,83.877487 570.928833,78.310921 570.900024,70.735451 
	C570.850220,57.659996 568.848022,44.898304 566.468567,32.138176 
	C566.296387,31.214554 565.703796,30.279488 566.772949,29.203779 
	C567.301086,29.502762 568.005310,29.680702 568.357910,30.132851 
	C583.825928,49.966957 588.170532,78.732368 573.273193,99.443352 
	C568.972107,105.423050 563.373718,110.078033 556.885437,113.040298 
	C540.414001,120.560417 534.772766,133.422012 536.147888,150.691360 
	C536.699829,157.622910 536.555054,164.633453 535.339172,171.609650 
	C533.807983,180.395035 529.208130,185.952560 520.569885,188.562424 
	C509.866272,191.796326 498.879211,193.735565 488.021057,196.250626 
	C477.806183,198.616684 467.690552,201.056152 459.338318,207.996704 
	C475.385803,198.552429 493.883270,197.810608 511.296234,193.262344 
	C519.015930,191.245972 526.739868,189.486954 533.115967,183.831894 
	C532.442139,188.774368 530.066589,192.436310 526.128662,195.083771 
	C520.952515,198.563660 515.056152,200.416260 509.214996,202.377579 
	C498.015381,206.138168 486.580322,209.329697 476.424103,215.652466 
	C468.569092,220.542633 463.203979,227.248535 461.551697,236.561890 
	C460.788422,240.864319 461.390900,241.761108 466.443878,243.424866 
	C471.455170,228.743240 482.789642,221.337601 496.796143,217.314270 
	C497.834167,218.413406 497.608032,219.068130 497.134338,219.534683 
	C488.043121,228.488754 484.003998,240.213440 479.473419,251.668701 
	C479.044891,252.752289 478.703125,253.871857 478.242371,254.940796 
	C471.684479,270.155273 461.884766,272.329926 449.577271,261.173981 
	C443.186218,255.380890 436.691193,250.179214 427.371521,250.132263 
	C419.514191,250.092682 413.268463,253.360229 407.586395,258.346832 
	C404.712372,260.869110 401.851654,263.470093 398.680573,265.577545 
	C391.407928,270.410889 382.956879,268.140259 378.600983,260.494354 
	C374.699524,253.646057 372.857849,245.948395 369.597443,238.837128 
	C366.389862,231.841080 362.835388,225.090591 356.308380,220.096436 
	C355.998657,220.001373 356.016174,220.022598 356.016174,220.022598 
	C355.735107,216.232178 357.920593,217.505783 359.832001,218.149200 
	C372.201508,222.313049 382.223114,229.131927 386.923553,242.009735 
	C387.085236,242.452698 387.504944,242.801468 387.897308,243.315948 
	C392.346680,242.824203 393.089539,240.036896 392.424713,236.245255 
	C390.779938,226.864410 385.193054,220.342285 377.342865,215.515457 
	C368.902588,210.325851 359.561676,207.253906 350.232452,204.150055 
	C343.291595,201.840820 336.167236,199.960281 329.777557,196.244629 
	C325.224670,193.597076 321.803406,190.024292 320.323059,183.505920 
	C335.720856,194.508606 353.253418,195.018723 369.712921,199.017670 
	C377.527649,200.916290 385.020447,203.488464 392.820312,207.210434 
	C396.531647,210.252151 399.700348,212.948654 402.869049,215.645157 
	C400.001373,212.242676 397.492035,208.426056 393.000000,207.000000 
z"/>
<path fill="#000000" opacity="1.000000" stroke="none" 
	d="
M267.467346,799.555176 
	C296.369110,842.270874 331.223816,878.581726 374.076080,906.918335 
	C377.063049,908.893494 377.656586,910.566711 375.731964,913.757996 
	C369.969391,923.313171 364.296906,932.936401 359.022095,942.765320 
	C356.830017,946.850037 355.006683,946.940002 351.384583,944.554138 
	C318.734894,923.047974 289.897064,897.255310 264.390900,867.686584 
	C240.672028,840.189819 220.622406,810.204529 203.536041,778.181519 
	C201.477325,774.323059 202.255814,772.642761 206.011459,771.087219 
	C216.164658,766.881714 226.310715,762.638672 236.287231,758.036804 
	C240.209747,756.227478 242.227020,756.901733 244.137146,760.715515 
	C250.861755,774.141846 258.955200,786.768982 267.467346,799.555176 
M335.460876,910.290527 
	C336.580566,911.125427 337.700256,911.960327 339.147095,913.507690 
	C340.719635,915.071228 339.205017,917.892090 342.142365,919.710571 
	C343.884094,914.816162 344.641602,910.036560 344.491882,905.166443 
	C344.437347,903.392395 342.624512,902.041077 340.873413,902.566162 
	C336.255981,903.950806 331.737732,905.696899 327.406586,908.909973 
	C330.333893,910.538940 332.771393,908.990906 335.460876,910.290527 
M301.719025,870.592712 
	C302.340302,869.708740 302.725403,868.732422 301.643585,868.010620 
	C300.599976,867.314331 299.831909,868.196472 299.032867,868.780090 
	C297.160217,870.147949 295.984283,872.647583 293.031036,872.818909 
	C292.097198,868.700317 293.056396,864.922791 292.960663,861.161560 
	C292.913940,859.325195 293.031830,857.251892 290.534882,856.967957 
	C287.992065,856.678894 281.886292,863.848816 282.047302,867.041504 
	C285.426147,866.683899 286.667023,862.767151 289.701111,862.264893 
	C290.671356,862.828796 291.057709,863.595581 291.008636,864.438904 
	C290.826202,867.576050 290.530426,870.706360 290.327423,873.842468 
	C290.215546,875.570618 290.453125,877.270325 292.248566,878.066528 
	C294.031403,878.857178 294.963135,877.283264 296.001068,876.325073 
	C297.827148,874.639343 299.542969,872.834229 301.719025,870.592712 
M246.168045,810.705139 
	C243.565720,813.632446 244.081253,816.520142 246.446472,820.660278 
	C246.647888,815.541992 247.571976,811.911926 252.299576,811.749756 
	C259.264740,811.510742 259.374054,817.153015 260.690613,821.853394 
	C261.966156,817.196106 259.516205,813.910400 256.465149,811.011292 
	C253.529556,808.221924 250.222931,807.184204 246.168045,810.705139 
M275.022064,841.962219 
	C276.089142,841.823608 277.156250,841.684998 278.328827,841.532715 
	C276.707855,838.753296 274.748566,836.980286 272.044373,839.821777 
	C269.672546,842.314026 264.089417,843.138062 266.595978,849.469666 
	C269.003113,847.014771 270.579895,843.792236 274.656921,847.275574 
	C273.360779,844.815613 272.914459,843.426636 275.022064,841.962219 
M241.343826,789.311279 
	C241.879883,789.188110 243.091751,789.544983 242.549545,788.479187 
	C241.858124,787.120056 240.555893,786.072205 238.856293,786.682556 
	C237.109222,787.309998 236.937363,788.919373 237.301712,790.442566 
	C237.802673,792.536987 238.546738,794.572876 239.173782,796.637756 
	C239.650894,798.209045 240.421051,799.758240 239.095367,801.341675 
	C237.839294,802.841980 236.291214,801.454163 234.182037,801.430969 
	C236.588715,803.302612 237.801895,806.309937 240.532028,804.651428 
	C243.018295,803.141052 241.812729,800.494263 241.146591,798.293274 
	C240.714371,796.865173 240.039169,795.512207 239.567169,794.094177 
	C238.970963,792.302917 238.467606,790.478821 241.343826,789.311279 
M325.191681,899.663269 
	C326.298279,898.231201 327.442902,896.826416 328.497620,895.357117 
	C329.161407,894.432495 329.984283,893.373840 328.849213,892.288879 
	C327.628998,891.122498 326.713440,892.125061 325.971863,892.995117 
	C324.052460,895.247375 322.164276,897.529663 320.356110,899.871338 
	C319.665070,900.766357 318.928772,901.928040 320.192657,902.910339 
	C321.430817,903.872559 322.315063,902.879517 323.121460,902.052124 
	C323.694458,901.464233 324.202148,900.812622 325.191681,899.663269 
M310.351898,888.768677 
	C312.382446,886.549194 313.810242,883.702881 317.586365,882.842285 
	C315.819336,881.551636 315.238464,879.929077 313.112091,880.170532 
	C311.064087,883.795715 306.267029,885.777588 305.513275,890.648804 
	C308.065308,891.781433 308.789459,890.117615 310.351898,888.768677 
M262.972565,830.623962 
	C261.076813,832.519348 257.521790,833.139160 257.805817,837.006592 
	C263.475555,835.888062 268.412079,831.679382 268.333893,827.998901 
	C266.308624,827.879883 265.066132,829.398682 262.972565,830.623962 
z"/>
<path fill="#000000" opacity="1.000000" stroke="none" 
	d="
M485.063232,903.040405 
	C535.214050,867.859497 573.845154,822.840088 603.979797,770.226013 
	C605.799927,767.048035 607.623169,763.849182 609.118652,760.513733 
	C610.812073,756.736633 613.114868,756.329041 616.704468,757.952332 
	C626.715027,762.479431 636.772766,766.917480 646.945129,771.063721 
	C651.040283,772.732910 651.715881,774.441772 649.573181,778.446350 
	C635.232056,805.248108 618.862976,830.703186 599.839050,854.422607 
	C571.813477,889.365479 539.526367,919.665588 502.071198,944.396790 
	C498.062012,947.044006 496.290863,946.541321 494.088165,942.508179 
	C488.980957,933.157104 483.676483,923.899048 478.050781,914.852722 
	C475.523102,910.788208 475.859039,908.314087 480.178802,906.259705 
	C481.816437,905.480896 483.246338,904.265198 485.063232,903.040405 
M556.727661,871.319946 
	C556.016724,871.959900 555.305847,872.599915 553.922974,873.237488 
	C551.583313,873.306213 550.815979,870.479187 548.860596,870.137207 
	C547.877563,870.855469 547.162292,871.669739 547.618591,872.399048 
	C549.648193,875.643555 552.228210,878.797302 555.622803,880.205200 
	C558.674255,881.470703 560.065552,877.542603 562.119873,875.844360 
	C562.955994,875.153198 563.373840,873.956177 564.537903,872.608582 
	C567.666138,868.097595 567.582458,867.753601 562.512024,866.392517 
	C561.628479,866.155334 560.975525,865.969604 560.784851,865.029358 
	C559.868408,860.509338 557.674927,862.120544 554.625000,864.077759 
	C560.160583,865.149597 558.570984,867.957947 556.727661,871.319946 
M569.476074,847.384888 
	C565.663391,852.851379 565.437988,856.067200 568.814575,858.816345 
	C572.931152,862.168091 576.182007,860.200012 579.573059,856.669495 
	C580.033997,856.185791 580.494934,855.702026 581.487671,854.724243 
	C582.136902,853.781494 582.905579,852.898621 583.413208,851.884949 
	C585.061768,848.593201 585.826172,845.251343 582.484009,842.521667 
	C579.180115,839.823303 575.996582,841.256226 572.988220,843.255188 
	C571.605286,844.174072 570.488037,845.385681 569.999512,846.999939 
	C569.999512,846.999939 570.025879,846.963257 569.476074,847.384888 
M586.448486,825.393188 
	C585.972229,826.203064 585.495972,827.012939 584.525879,828.286438 
	C583.657959,829.328857 582.645325,830.667114 583.722900,831.783997 
	C586.578979,834.744690 589.697083,837.451172 594.120605,838.603760 
	C594.928406,834.708862 590.745178,834.005005 591.233459,830.795105 
	C591.457153,830.542480 591.680847,830.289856 592.490234,829.634094 
	C594.678528,825.048584 599.022156,826.118958 603.301208,826.593994 
	C601.692444,822.321411 598.963562,823.045715 596.503662,823.424133 
	C595.365845,821.737854 596.527832,818.809692 593.712463,818.545715 
	C591.461426,818.334656 590.236206,820.184143 589.017639,821.720032 
	C588.206604,822.742188 587.600403,823.926758 586.448486,825.393188 
M542.333679,889.775818 
	C542.872192,889.218018 543.410706,888.660217 544.676697,888.015625 
	C546.206055,887.328796 548.245789,889.749451 549.799866,886.709351 
	C546.011047,883.995972 541.591064,882.779236 537.193542,881.719666 
	C535.394287,881.286072 533.709412,882.834167 533.752747,884.563782 
	C533.872803,889.352661 534.331055,894.165710 537.844788,899.459961 
	C538.478760,895.104858 539.404724,892.211853 542.333679,889.775818 
M599.690613,806.828369 
	C599.573059,806.712524 599.473694,806.546509 599.332642,806.495178 
	C599.193604,806.444580 598.942993,806.445251 598.859558,806.534241 
	C597.038208,808.476624 596.864746,810.247253 599.410889,811.746216 
	C601.543396,813.001709 603.645874,814.308350 605.782349,815.556885 
	C608.073181,816.895691 609.497925,816.123291 610.326294,813.274597 
	C604.010010,812.983582 605.046936,809.390808 607.205139,805.258545 
	C604.936890,807.547546 603.555725,811.753784 599.690613,806.828369 
M526.930542,907.281738 
	C527.186035,906.893860 527.441467,906.505981 527.696899,906.118042 
	C527.559509,906.071472 527.341248,905.944580 527.296265,905.989807 
	C523.467285,909.844727 521.349304,907.089600 519.203552,903.987366 
	C518.265442,902.631287 517.113953,901.398743 515.914795,900.262817 
	C515.578918,899.944519 514.568115,899.932495 514.158508,900.210083 
	C513.732361,900.498962 513.295532,901.505432 513.487549,901.859375 
	C515.395264,905.375244 517.506836,909.049500 520.931152,910.990540 
	C523.127991,912.235901 524.712280,908.974121 526.930542,907.281738 
z"/>
<path fill="#000000" opacity="1.000000" stroke="none" 
	d="
M396.186340,939.751831 
	C425.169342,947.077637 452.730255,945.180847 478.703796,930.280396 
	C482.018890,928.378601 483.682037,928.905090 485.350525,932.134033 
	C488.024994,937.309814 491.124512,942.266846 493.772156,947.455261 
	C495.329041,950.506104 496.965332,951.026794 500.071320,949.456238 
	C507.726715,945.585449 511.067596,947.245178 513.707520,955.672119 
	C514.522034,958.272217 513.291687,960.230530 511.817139,962.064270 
	C508.736206,965.895630 504.778290,968.674133 500.469971,970.932739 
	C483.421783,979.870178 465.147919,984.315491 446.094604,986.508728 
	C422.075043,989.273621 398.619171,986.965698 375.526398,980.249023 
	C365.909271,977.451782 356.585327,973.833801 348.201477,968.189514 
	C346.552277,967.079224 344.963196,965.828979 343.537598,964.446228 
	C337.896179,958.974182 338.468445,951.804504 344.747894,946.982300 
	C346.316193,945.777954 347.564575,946.515991 348.881042,947.181702 
	C351.399353,948.455017 353.880981,949.800781 357.001099,951.444946 
	C360.507263,945.294739 364.207794,939.418823 367.268677,933.226685 
	C369.450256,928.813293 371.640533,928.480103 375.657166,930.994263 
	C381.881378,934.890198 388.692413,937.671082 396.186340,939.751831 
M414.347137,957.099854 
	C411.851929,957.111511 409.355988,957.089661 406.861725,957.144165 
	C404.378632,957.198486 403.023041,958.638367 403.408661,960.991089 
	C404.091949,965.160095 400.634186,971.331665 405.581635,973.090393 
	C410.047699,974.677979 415.865448,974.499268 420.944916,972.511230 
	C417.809387,972.078369 414.682953,972.117554 411.558105,972.064331 
	C409.530792,972.029785 407.932037,971.367249 407.940430,968.927185 
	C407.949036,966.428955 409.639160,965.990906 411.634583,965.904907 
	C414.248138,965.792297 416.860748,965.658386 419.473785,965.533691 
	C419.439697,965.120056 419.405609,964.706482 419.371521,964.292847 
	C416.902985,964.292847 414.434357,964.307861 411.966003,964.288025 
	C410.055115,964.272705 408.117523,964.144104 408.046753,961.575256 
	C407.976135,959.010925 409.857605,958.710999 411.797882,958.687744 
	C414.945221,958.649902 418.093353,958.677490 421.241150,958.677490 
	C421.216400,958.150513 421.191681,957.623474 421.166931,957.096497 
	C419.195374,957.096497 417.223785,957.096497 414.347137,957.099854 
M439.045471,969.140747 
	C439.287933,970.844055 438.612579,973.392456 441.230103,973.422363 
	C444.206512,973.456482 443.491943,970.753052 443.649048,968.878479 
	C443.718323,968.052185 443.754700,967.202820 443.646332,966.385132 
	C442.985352,961.396301 444.067566,957.872742 450.159821,958.379578 
	C450.188416,958.381958 450.259613,957.871948 450.309357,957.600891 
	C442.905853,956.552002 435.060211,956.851013 431.796814,958.306458 
	C439.111603,959.158142 439.111786,959.158142 439.061859,966.748169 
	C439.058563,967.247375 439.048523,967.746643 439.045471,969.140747 
z"/>
<path fill="#000000" opacity="1.000000" stroke="none" 
	d="
M641.387207,765.536865 
	C632.637817,761.770142 624.159546,758.288574 615.841980,754.458008 
	C612.455322,752.898254 610.324341,753.556091 609.260986,756.920593 
	C607.375671,762.885803 603.477539,763.339417 598.409973,761.370178 
	C596.244080,760.528503 593.915222,760.077332 591.804260,759.128601 
	C586.964844,756.953857 585.371643,753.407837 586.587585,748.129028 
	C587.638000,743.568787 590.343384,740.013672 593.546021,736.789124 
	C601.034180,729.249817 610.108154,723.964355 619.267395,718.808655 
	C628.058533,713.860229 633.663818,706.751526 635.148926,696.497253 
	C635.573608,693.565002 635.316711,690.609741 635.768494,686.796204 
	C642.446289,691.753662 643.969482,698.404175 645.327148,705.202576 
	C646.388733,710.518738 645.923096,715.800049 645.299255,721.083984 
	C644.773376,725.538818 646.796265,726.231934 650.614014,725.199219 
	C662.657837,721.941040 669.688232,714.240173 671.708740,701.934509 
	C671.883240,700.872070 671.421814,699.527161 673.495544,698.656433 
	C676.262634,704.487610 676.806030,710.554138 675.935059,716.797180 
	C674.232361,729.002136 667.248169,737.792236 657.534668,744.753113 
	C656.587158,745.432190 655.611755,746.074829 654.627075,746.699280 
	C643.879944,753.516113 643.156555,755.351746 646.779541,766.801880 
	C644.765869,767.884277 643.386292,766.103210 641.387207,765.536865 
z"/>
<path fill="#000000" opacity="1.000000" stroke="none" 
	d="
M207.939758,755.300415 
	C205.917892,751.408203 202.761154,749.296936 199.456360,747.282532 
	C187.706390,740.120422 179.351974,730.505676 177.182846,716.388733 
	C176.196198,709.967468 177.260834,703.070984 180.543777,698.396362 
	C181.213593,701.127197 181.739731,703.452576 182.356049,705.753845 
	C185.105698,716.020935 191.835770,722.288147 201.958099,725.046997 
	C207.022171,726.427246 207.873657,725.706238 207.744308,720.513794 
	C207.553925,712.870850 206.925171,705.182678 209.690842,697.801880 
	C211.188599,693.804749 212.782059,689.840576 216.543503,687.419983 
	C218.539276,688.799316 217.906082,690.436340 217.903992,691.825317 
	C217.885376,704.159485 223.421616,713.136169 234.198486,718.953552 
	C241.980499,723.154297 249.471207,727.801758 256.181580,733.585693 
	C260.745544,737.519470 264.977936,741.772705 266.599030,747.885071 
	C267.978546,753.086487 266.188995,757.085632 261.267334,759.324585 
	C259.315399,760.212646 257.213623,760.821106 255.128891,761.358521 
	C247.665649,763.282349 247.437302,763.367004 243.846603,756.597656 
	C242.019775,753.153687 240.124908,753.206055 237.060501,754.581848 
	C228.562286,758.397156 219.966431,761.995300 211.400024,765.657837 
	C210.054520,766.233093 208.811035,767.212097 206.729416,766.834961 
	C206.895554,763.087341 210.090988,759.570984 207.939758,755.300415 
z"/>
<path fill="#000000" opacity="1.000000" stroke="none" 
	d="
M401.284607,265.368286 
	C404.763947,262.477448 407.878998,259.715393 411.143860,257.143494 
	C421.014374,249.367950 432.360107,249.272766 442.379333,256.880890 
	C445.026794,258.891235 447.562561,261.061615 450.037689,263.283173 
	C455.183380,267.901733 460.924438,270.201447 467.914337,268.435760 
	C469.329407,268.078308 469.377197,268.267548 471.234406,270.203033 
	C470.674133,271.742035 469.141235,271.724121 467.958832,272.022156 
	C460.313629,273.949066 453.998718,278.081329 448.348907,283.433533 
	C444.848511,286.749573 441.368439,290.113098 437.624847,293.140747 
	C430.594452,298.826599 423.921143,298.877563 416.667450,293.408020 
	C413.885895,291.310638 411.216888,289.006622 408.782623,286.517090 
	C401.911865,279.490326 394.340088,273.723389 384.421875,271.759613 
	C383.618958,271.600616 382.833466,271.244415 382.237579,269.117340 
	C388.424347,267.658203 395.791443,270.844574 401.284607,265.368286 
z"/>
<path fill="#000000" opacity="1.000000" stroke="none" 
	d="
M514.708130,209.408203 
	C522.657288,206.485550 524.382141,207.660034 524.249084,215.677750 
	C524.034241,228.621063 522.033813,241.189590 516.201355,252.928635 
	C514.255981,256.844116 511.682404,260.313354 508.731140,263.504456 
	C503.867310,268.763550 498.114929,271.914612 490.651093,271.427032 
	C486.502625,271.156067 482.323181,271.322021 478.158264,271.356628 
	C476.195587,271.372955 474.589630,270.954895 473.570557,269.045166 
	C472.559540,267.150482 473.615295,265.948273 474.674561,264.598541 
	C479.721344,258.167755 481.861176,250.369186 484.562683,242.885300 
	C490.036377,227.721634 499.682648,216.438950 514.708130,209.408203 
z"/>
<path fill="#000000" opacity="1.000000" stroke="none" 
	d="
M355.987976,219.992691 
	C365.080444,230.731934 369.658234,243.757126 374.444458,256.677795 
	C375.552460,259.668854 377.376312,262.248322 379.101318,264.896149 
	C381.508026,268.590332 380.445984,271.114929 376.184357,271.260834 
	C370.209534,271.465363 364.183624,271.651215 358.246643,271.109711 
	C351.092712,270.457153 346.343140,265.555939 342.254913,260.175079 
	C333.784729,249.026672 331.003510,235.941605 329.820038,222.370178 
	C329.647156,220.387466 329.696198,218.383408 329.684784,216.388977 
	C329.632721,207.292526 331.980469,205.922516 340.408569,209.955322 
	C345.855194,212.561523 350.354889,216.563354 355.687103,219.921127 
	C356.016174,220.022598 355.998657,220.001373 355.987976,219.992691 
z"/>
<path fill="#000000" opacity="1.000000" stroke="none" 
	d="
M393.485352,276.549347 
	C396.428833,279.406372 397.546692,282.999481 399.360687,286.138336 
	C401.161102,289.253693 405.677155,289.802887 406.248230,294.683533 
	C400.750061,289.884583 395.046509,294.336365 389.599945,293.354431 
	C384.380981,292.413513 381.573151,286.716339 383.085907,281.238647 
	C384.353790,276.647614 387.743103,275.003113 393.485352,276.549347 
z"/>
<path fill="#000000" opacity="1.000000" stroke="none" 
	d="
M470.183228,288.741577 
	C466.006836,294.111572 463.328766,295.015839 457.617065,292.492401 
	C454.754578,291.227692 452.898132,292.395386 450.843689,293.897125 
	C449.858276,294.617462 448.647736,295.138214 447.815887,293.835358 
	C446.997101,292.552979 447.933258,291.614227 448.998291,291.024872 
	C452.642120,289.008545 454.905457,285.819916 456.795746,282.242828 
	C460.043976,276.095978 462.507172,274.557312 466.474274,276.036316 
	C470.620209,277.582001 472.098236,282.278137 470.183228,288.741577 
z"/>
<path fill="#000000" opacity="1.000000" stroke="none" 
	d="
M335.197754,910.125122 
	C335.496124,906.167297 338.401123,905.861633 341.614532,905.319397 
	C341.906799,908.246277 342.075531,910.750916 339.160614,912.654053 
	C337.700256,911.960327 336.580566,911.125427 335.197754,910.125122 
z"/>
<path fill="#000000" opacity="1.000000" stroke="none" 
	d="
M580.955933,855.218262 
	C580.494934,855.702026 580.033997,856.185791 578.922180,856.880981 
	C569.922791,857.777283 567.497192,854.797546 570.025879,846.963257 
	C570.025879,846.963257 569.999512,846.999939 570.261169,846.830200 
	C573.012939,844.269226 575.700012,842.351685 579.246094,844.431885 
	C581.912903,845.996155 583.071655,848.441467 582.312866,851.538269 
	C582.003662,852.800049 581.416565,853.993652 580.955933,855.218262 
z"/>
<path fill="#000000" opacity="1.000000" stroke="none" 
	d="
M591.904541,830.037231 
	C591.680847,830.289856 591.457153,830.542480 590.795044,831.073486 
	C587.560730,831.713379 586.056702,830.121277 585.019714,827.822815 
	C585.495972,827.012939 585.972229,826.203064 586.951477,825.017456 
	C589.322693,823.285522 590.817383,819.858887 593.564453,822.098145 
	C596.157715,824.212097 593.670837,826.571716 592.497925,828.669434 
	C592.256592,829.101074 592.100098,829.580078 591.904541,830.037231 
z"/>
<path fill="#000000" opacity="1.000000" stroke="none" 
	d="
M556.932983,871.023560 
	C559.854126,869.288391 562.956848,866.064819 564.021606,872.615356 
	C563.184448,873.782776 562.341858,874.544495 561.521423,875.329407 
	C557.853699,878.838745 557.112610,878.692200 554.630859,873.597046 
	C555.305847,872.599915 556.016724,871.959900 556.932983,871.023560 
z"/>
<path fill="#000000" opacity="1.000000" stroke="none" 
	d="
M542.089905,889.943848 
	C540.551758,890.288391 539.678894,891.760132 537.945312,891.245850 
	C536.609558,889.463257 536.130737,887.336365 536.265930,884.741394 
	C539.354736,884.497925 541.627380,885.562988 543.767212,887.804871 
	C543.410706,888.660217 542.872192,889.218018 542.089905,889.943848 
z"/>
<path fill="#000000" opacity="1.000000" stroke="none" 
	d="
M611.136047,598.838074 
	C609.778198,605.789185 608.501343,612.313171 607.229370,618.838135 
	C606.710327,621.501038 605.716553,623.215576 602.423828,623.407776 
	C587.247498,624.294006 573.036804,628.816223 559.427979,635.428284 
	C553.135986,638.485413 546.820618,641.495483 540.485229,644.461487 
	C522.876831,652.705200 505.388824,652.455627 488.065491,643.584106 
	C481.986542,640.470947 475.959595,637.256104 469.878815,634.146667 
	C439.804718,618.768188 409.988190,619.886536 380.370453,635.517761 
	C371.980743,639.945557 363.860199,644.987488 354.758606,647.901245 
	C339.666229,652.732788 325.186218,650.395996 311.093506,643.857971 
	C297.816986,637.698425 285.048462,630.332275 270.695801,626.702820 
	C264.236725,625.069397 257.739563,623.636108 251.053604,623.379700 
	C248.947662,623.298889 246.994263,623.201050 246.446640,620.613159 
	C243.527420,606.818237 240.665375,593.014526 239.396347,579.203552 
	C241.499771,577.347717 243.589066,577.910583 245.518829,577.910217 
	C366.182098,577.886780 486.845337,577.890930 607.508606,577.895081 
	C614.243408,577.895325 614.274597,577.909973 613.329102,584.606079 
	C612.678223,589.215271 611.925964,593.810120 611.136047,598.838074 
z"/>
<path fill="#000000" opacity="1.000000" stroke="none" 
	d="
M377.481689,741.543701 
	C369.307404,746.125427 361.368713,750.366394 352.726929,753.033752 
	C338.171265,757.526428 324.425262,754.466003 311.074219,748.278320 
	C306.240448,746.037964 301.610046,743.268066 296.623077,741.472046 
	C290.450470,739.249084 287.165680,734.904846 284.425110,729.225708 
	C275.731873,711.211365 267.860046,692.878296 261.372681,673.956909 
	C260.800507,672.288147 259.674103,670.686218 260.336182,668.674866 
	C262.453583,667.648682 264.193939,668.961548 265.987244,669.608582 
	C276.513733,673.406372 286.150055,679.140137 296.367218,683.622925 
	C326.131439,696.682007 355.474060,696.047791 384.447693,681.199158 
	C390.968292,677.857483 397.444183,674.425293 404.015472,671.186462 
	C419.626648,663.492188 435.174927,664.027893 450.576324,671.848206 
	C456.811493,675.014282 462.962128,678.347229 469.205597,681.496521 
	C500.302124,697.182007 531.326111,696.319458 562.324341,681.113831 
	C570.243774,677.229126 578.290405,673.601074 586.315979,669.936707 
	C588.259888,669.049133 590.276001,668.196716 592.505676,668.225586 
	C594.003662,669.637817 592.958801,671.006042 592.500244,672.343872 
	C585.200012,693.642212 576.466370,714.330383 566.078369,734.312378 
	C565.312256,735.786072 564.665894,737.398621 563.038696,738.154541 
	C550.387573,744.031921 538.377319,751.432068 524.425903,754.209656 
	C510.238129,757.034302 497.388245,753.067810 485.061005,746.544006 
	C475.344299,741.401733 465.756042,735.966370 455.271881,732.506287 
	C430.757568,724.415955 407.043030,726.942017 384.063812,738.243042 
	C381.971649,739.272034 379.891663,740.325806 377.481689,741.543701 
z"/>
<path fill="#000000" opacity="1.000000" stroke="none" 
	d="
M373.445312,845.569946 
	C356.991821,830.999268 341.798645,815.739990 328.422943,798.016052 
	C331.831726,796.295593 334.645905,797.576599 337.308411,797.574219 
	C357.207794,797.556274 375.149750,791.041809 392.311310,781.613770 
	C401.937317,776.325562 411.553772,771.049011 422.975342,770.387634 
	C430.609741,769.945618 437.855286,770.960205 444.931396,773.774414 
	C453.629730,777.234009 461.577606,782.173889 469.947388,786.280090 
	C486.719421,794.508484 504.278290,798.765259 523.058350,797.109497 
	C523.335083,797.085022 523.638550,797.364990 523.941772,797.508667 
	C524.676270,799.310913 523.267761,800.274414 522.369934,801.381287 
	C496.831451,832.865479 467.026855,859.389099 431.781799,879.675049 
	C427.934143,881.889587 425.090546,881.798645 421.309784,879.610657 
	C404.380798,869.813416 388.547974,858.524414 373.445312,845.569946 
z"/>
<path fill="#000000" opacity="1.000000" stroke="none" 
	d="
M504.267761,500.000061 
	C504.267120,510.499725 504.266388,520.499390 504.265533,530.499023 
	C504.264893,538.195740 503.574188,538.940063 495.632568,538.957092 
	C477.633972,538.995605 459.635223,538.972656 441.636536,538.947632 
	C438.461792,538.943237 435.438202,539.091370 432.428375,540.574829 
	C429.204803,542.163696 425.458649,542.227722 422.224243,540.717163 
	C418.722351,539.081604 415.205750,538.957764 411.524139,538.964050 
	C393.525635,538.994751 375.526978,538.982239 357.528503,538.929993 
	C350.519745,538.909668 349.863220,538.211670 349.856659,531.145813 
	C349.833740,506.480011 349.824646,481.814178 349.837280,457.148376 
	C349.840790,450.324799 350.358063,449.831787 357.302399,449.785736 
	C360.147217,449.766876 362.964874,449.879517 365.367401,447.893402 
	C366.791748,446.716003 368.415741,447.058075 370.118469,447.429718 
	C382.228699,450.072662 394.229584,449.594177 406.186493,446.269775 
	C412.502167,444.513794 418.934937,443.562927 425.281403,446.386169 
	C426.591095,446.968842 427.863464,446.784607 429.150665,446.248688 
	C435.349182,443.667969 441.624390,444.446594 447.776886,446.215820 
	C459.720886,449.650482 471.721985,450.000641 483.846588,447.502686 
	C485.315216,447.200104 486.866913,446.509369 488.161285,447.611450 
	C491.135925,450.144073 494.660645,449.965881 498.138885,449.749756 
	C502.727600,449.464691 504.352692,451.583252 504.315186,456.001587 
	C504.192108,470.500153 504.268158,485.000427 504.267761,500.000061 
M478.821930,517.408875 
	C483.358154,517.227844 484.863037,515.046936 484.790802,510.391968 
	C484.514221,492.563324 484.604614,474.727386 484.727753,456.895386 
	C484.754242,453.061279 483.579926,451.928711 479.710022,452.652313 
	C469.232605,454.611328 458.818756,453.940186 448.599091,450.882599 
	C444.569702,449.677063 440.508301,448.983673 436.293701,449.164337 
	C430.450287,449.414886 429.294373,450.502258 429.283539,456.310272 
	C429.251251,473.643066 429.252594,490.975983 429.294861,508.308746 
	C429.298737,509.895020 428.782043,511.665466 430.424377,513.242859 
	C436.290375,512.356445 442.177368,513.586853 447.923889,515.175537 
	C457.823120,517.912354 467.745209,519.445312 478.821930,517.408875 
M369.328186,473.500122 
	C369.328949,486.150085 369.321899,498.800049 369.337585,511.450012 
	C369.340454,513.752991 368.927979,516.334900 372.297455,516.802246 
	C378.359100,517.643066 384.293457,518.809875 390.582275,518.212769 
	C401.831024,517.144775 412.359161,511.907227 423.789978,513.090515 
	C424.156433,512.343933 424.558411,511.906219 424.559937,511.467102 
	C424.626129,492.161865 424.678345,472.856567 424.669434,453.551239 
	C424.668091,450.603210 422.520813,449.600830 420.019012,449.325867 
	C415.507141,448.829987 411.028015,449.154694 406.680847,450.493225 
	C395.841888,453.830658 384.863373,454.835144 373.692596,452.543579 
	C370.264130,451.840271 369.216431,453.295441 369.296600,456.522308 
	C369.428802,461.845276 369.330048,467.173950 369.328186,473.500122 
M433.542908,526.077393 
	C444.475067,524.934021 454.863129,528.167969 465.442932,529.956421 
	C474.314667,531.456116 483.197571,531.421814 492.113312,529.322266 
	C489.248932,522.155396 486.731415,520.433533 480.794617,521.411804 
	C469.805023,523.222656 458.960449,522.788025 448.202576,519.742004 
	C444.536346,518.703918 440.751709,517.994324 436.974426,517.473877 
	C434.918884,517.190674 432.347260,516.686523 430.943817,518.771729 
	C429.611664,520.750916 431.625305,522.467834 432.252075,524.274536 
	C432.411804,524.734863 432.750092,525.133240 433.542908,526.077393 
M363.416138,529.754089 
	C374.912292,531.850525 386.250885,530.999939 397.557190,528.240479 
	C403.835754,526.708130 410.163696,524.919189 416.755371,526.292725 
	C418.665588,526.690674 420.515564,526.945129 421.488922,524.819702 
	C422.358856,522.920166 424.283508,521.016602 423.098419,518.842468 
	C421.985870,516.801453 419.556030,517.386169 417.604279,517.424072 
	C416.289886,517.449463 414.952606,517.694946 413.675537,518.031555 
	C399.400452,521.794678 385.066040,524.141541 370.273926,521.076660 
	C366.689056,520.333923 362.406067,525.574097 363.416138,529.754089 
M358.544464,514.719727 
	C358.495880,517.716064 358.246124,520.733765 359.124207,523.777710 
	C363.835754,520.068298 365.205750,515.570862 365.101624,509.966187 
	C364.795837,493.513672 364.990784,477.052185 364.925354,460.594482 
	C364.918457,458.862640 365.480927,456.967590 364.188080,455.386017 
	C359.384186,457.591278 358.463501,458.762756 358.627014,464.139252 
	C359.132385,480.759644 358.916840,497.374084 358.544464,514.719727 
M492.305756,456.366516 
	C491.469147,455.944366 490.856781,454.877136 489.475494,455.526245 
	C489.373352,456.041534 489.142487,456.666046 489.141205,457.291016 
	C489.102051,476.248444 489.100647,495.205902 489.052979,514.163269 
	C489.043152,518.065674 491.240936,520.485229 494.029358,522.644897 
	C495.404968,521.607483 495.033844,520.337952 495.037689,519.258850 
	C495.106689,499.969330 495.101593,480.679443 495.204346,461.390137 
	C495.215485,459.293579 494.376312,457.920166 492.305756,456.366516 
z"/>
<path fill="#000000" opacity="1.000000" stroke="none" 
	d="
M374.318970,437.076691 
	C376.332184,435.329590 378.248627,433.962463 379.874420,432.309479 
	C382.322418,429.820587 384.525940,428.516022 387.073608,432.182587 
	C388.470245,434.192566 390.276276,433.417938 391.916168,432.401581 
	C393.676270,431.310730 396.527740,430.603333 395.489136,427.815155 
	C393.775360,423.214600 396.375610,421.897034 399.907715,420.845245 
	C401.658295,420.324005 403.339233,419.572998 405.066406,418.967865 
	C406.829956,418.349976 408.613770,418.380127 409.093536,420.505585 
	C409.958649,424.338318 412.319427,424.260376 415.476624,423.814697 
	C418.620636,423.370850 419.835602,421.941437 419.731506,418.914581 
	C419.649139,416.520660 421.211578,415.796722 423.312927,415.792908 
	C425.476746,415.788971 427.644318,415.859741 429.803436,415.755890 
	C432.793701,415.612000 434.622986,416.520203 434.425293,419.937103 
	C434.210876,423.642090 437.168335,423.290985 439.535065,423.948761 
	C442.141418,424.673157 443.748230,424.095001 444.468903,421.461945 
	C445.324005,418.337738 447.299469,418.224884 449.864044,419.306915 
	C451.855072,420.146942 453.889435,420.898041 455.941956,421.575134 
	C458.557709,422.438049 460.044556,423.800842 458.644714,426.727661 
	C457.607971,428.895233 457.933228,430.504211 460.364349,431.490601 
	C462.674164,432.427765 464.869385,435.094299 467.322601,431.858856 
	C469.430084,429.079407 471.428253,429.741730 473.536896,431.809723 
	C474.246948,432.506042 475.183960,432.987427 475.828674,433.730591 
	C477.439789,435.587891 481.634888,436.442352 479.987030,439.588348 
	C478.156281,443.083618 477.364166,447.912079 470.898010,447.461578 
	C463.673859,446.958282 457.060333,446.065033 450.349396,442.736847 
	C433.924072,434.590912 417.121094,435.088867 401.070709,444.024414 
	C394.108398,447.900452 386.878937,447.894043 379.757233,446.799835 
	C375.713318,446.178497 374.140015,441.630676 374.318970,437.076691 
z"/>
<path fill="#000000" opacity="1.000000" stroke="none" 
	d="
M478.331421,547.466003 
	C476.405762,549.074524 474.625671,550.336792 473.096130,551.851990 
	C470.986755,553.941528 469.173828,554.140259 467.412506,551.539001 
	C466.010193,549.468018 464.316711,549.307556 462.326843,550.717346 
	C460.365845,552.106750 457.285858,552.970337 458.569183,556.239075 
	C460.118042,560.184326 457.850830,561.252991 454.875061,562.184570 
	C453.132874,562.729919 451.444702,563.447815 449.731537,564.086060 
	C447.468292,564.929260 445.451263,565.086548 444.584808,562.178711 
	C443.720978,559.279785 441.628632,558.942078 439.072235,559.468506 
	C436.543579,559.989319 434.078308,560.468628 434.342499,563.980591 
	C434.544678,566.668091 432.854767,567.370972 430.530518,567.326538 
	C428.202484,567.282043 425.872467,567.284241 423.544312,567.323975 
	C421.246246,567.363220 419.503113,566.729736 419.715851,564.012024 
	C420.019379,560.134216 417.115692,560.062622 414.560089,559.352539 
	C411.764252,558.575684 410.152100,559.434998 409.373932,562.241577 
	C408.689667,564.709473 407.000916,565.170410 404.720184,564.256897 
	C402.560608,563.392029 400.371552,562.594055 398.168518,561.845947 
	C395.600098,560.973694 394.169769,559.651794 395.348267,556.665100 
	C396.743958,553.127930 393.798035,552.137390 391.638062,550.654846 
	C389.525330,549.204712 387.957581,549.700684 386.590973,551.675476 
	C384.739166,554.351379 382.834442,553.703003 380.805237,551.820129 
	C379.222137,550.351257 377.464569,549.071533 375.863068,547.621094 
	C374.675751,546.545654 372.966248,545.563293 373.976013,543.520386 
	C374.738068,541.978699 375.906006,540.609009 377.783264,540.722107 
	C388.304474,541.356201 398.939362,539.004089 409.351624,543.015198 
	C420.565674,547.335205 432.288330,547.390625 443.559540,543.365234 
	C449.713257,541.167480 455.756531,540.545471 462.090515,540.682312 
	C466.580261,540.779358 471.084747,540.531677 475.561432,540.796692 
	C480.015167,541.060486 481.101013,543.612610 478.331421,547.466003 
z"/>
</svg>